# xmcd
#
# Track frame offsets:
#	150
#	15645
#	31842
#	53705
#	65100
#	77060
#	88710
#	100745
#	114307
#
# Disc length: 1683
#
# Revision: 2
# Processed by: cddbd v1.5.1PL0 Copyright (c) Steve Scherf et al.
# Submitted via: audiograbber 1.80
# Normalized: r1:DSETVAR1
#
DISCID=67069109
DTITLE=Various Artist - 3 For 3
DYEAR=1900
DGENRE=
TTITLE0=B. B. King - How Blue Can You Get
TTITLE1=B. B. King - It's My Own Fault Baby
TTITLE2=B. B. King - The Thrill Is Gone
TTITLE3=John Lee Hooker - Boom Boom
TTITLE4=John Lee Hooker - Whisky and Wimmen
TTITLE5=John Lee Hooker - Hard Headed Woman
TTITLE6=Lightnin' Hopkins - Have You Ever Loved A Woman
TTITLE7=Lightnin' Hopkins - Mojo Hand
TTITLE8=Lightnin' Hopkins - Lonesome Dog Blues
EXTD=Year: 1997
EXTT0=
EXTT1=
EXTT2=
EXTT3=
EXTT4=
EXTT5=
EXTT6=
EXTT7=
EXTT8=
PLAYORDER=
